<?xml version="1.0" encoding="UTF-8"?>
<svg id="Layer_2" xmlns="http://www.w3.org/2000/svg" viewBox="0 0 4227.85 1496.58">
  <defs>
    <style>
      .cls-1, .cls-2 {
        fill-rule: evenodd;
      }

      .cls-1, .cls-3 {
        fill: #005baa;
      }

      .cls-2, .cls-4, .cls-5 {
        fill: #0c0c0c;
      }

      .cls-5 {
        font-family: BauhausStd-Medium, 'Bauhaus Std';
        font-size: 284.01px;
        font-weight: 500;
      }

      .cls-6 {
        fill: #00a2b1;
      }

      .cls-7 {
        fill: #ee2436;
      }
    </style>
  </defs>
  <g id="Layer_1-2" data-name="Layer_1">
    <g>
      <path class="cls-4" d="M170.66,1169.58c28,29.74,74.8,31.16,104.55,3.17l97.4-91.67-62.12-66-151.25,142.37,11.43,12.15Z"/>
      <path class="cls-4" d="M20.1,1009.62l62.34,66.23,66-62.12-50.9-54.09,166.38-156.6,189.82,201.67,12.61-11.86c29.74-27.99,31.15-74.8,3.16-104.55l-150.56-159.95c-28-29.75-74.8-31.16-104.54-3.17L23.27,905.07c-29.74,28-31.16,74.8-3.17,104.55Z"/>
      <path class="cls-4" d="M468.02,1290.34c29.74-27.99,31.16-74.8,3.17-104.54l-91.68-97.4-66,62.12,142.36,151.25,12.15-11.43Z"/>
      <path class="cls-4" d="M308.06,1440.91l66.23-62.34-62.12-66-54.09,50.9-156.6-166.38,201.67-189.82-11.86-12.6c-28-29.75-74.8-31.16-104.55-3.16l-159.96,150.56c-29.74,27.99-31.16,74.8-3.16,104.54l179.9,191.13c28,29.74,74.8,31.16,104.54,3.16Z"/>
      <path class="cls-4" d="M588.79,992.99c-28-29.75-74.8-31.16-104.55-3.17l-97.4,91.67,62.12,66,151.25-142.36-11.43-12.15Z"/>
      <path class="cls-4" d="M739.35,1152.95l-62.33-66.23-66,62.12,50.9,54.09-166.39,156.6-189.81-201.67-12.6,11.86c-29.74,28-31.16,74.8-3.17,104.55l150.57,159.96c27.99,29.75,74.8,31.17,104.53,3.16l191.14-179.9c29.75-27.99,31.16-74.8,3.16-104.55"/>
      <path class="cls-4" d="M291.43,872.22c-29.74,28-31.16,74.8-3.16,104.55l91.67,97.39,66-62.12-142.36-151.25-12.15,11.43Z"/>
      <path class="cls-4" d="M451.39,721.66l-66.23,62.33,62.12,66,54.09-50.91,156.6,166.37-201.67,189.82,11.87,12.61c28,29.74,74.8,31.16,104.55,3.16l159.96-150.56c29.74-28,31.16-74.8,3.16-104.54l-179.91-191.12c-27.99-29.75-74.8-31.16-104.54-3.16"/>
      <g>
        <path class="cls-4" d="M844.41,738.53v264.98c0,62.96,45.21,120.76,110.46,120.76,54.94,0,109.31-50.94,109.31-120.76s-54.37-120.76-109.31-120.76c-36.06,0-61.24,14.88-84.7,39.49v-25.76c16.6-13.73,42.92-34.34,84.7-34.34,73.83,0,132.2,59.52,132.2,141.36s-58.37,141.36-132.2,141.36-132.21-59.52-132.21-141.36v-264.98h21.75Z"/>
        <path class="cls-4" d="M1148.32,867.87v162.54c0,56.66,39.49,93.86,86.99,93.86s86.99-37.2,86.99-93.86v-162.54h21.75v165.4c0,66.96-48.07,111.6-108.74,111.6s-108.74-44.64-108.74-111.6v-165.4h21.75Z"/>
        <path class="cls-4" d="M1418.97,774.01c9.73,0,17.17,7.44,17.17,17.17s-7.44,17.17-17.17,17.17-17.17-7.44-17.17-17.17,7.44-17.17,17.17-17.17ZM1408.1,1139.15v-271.28h21.75v271.28h-21.75Z"/>
        <path class="cls-4" d="M1501.37,1139.15v-400.62h21.75v400.62h-21.75Z"/>
        <path class="cls-4" d="M1833.81,738.53v264.98c0,81.84-58.37,141.36-132.2,141.36s-132.2-59.52-132.2-141.36,58.38-141.36,132.2-141.36c41.78,0,68.11,20.61,84.7,34.34v25.76c-23.46-24.61-48.64-39.49-84.7-39.49-54.94,0-109.31,50.94-109.31,120.76s54.37,120.76,109.31,120.76c65.25,0,110.46-57.8,110.46-120.76v-264.98h21.75Z"/>
        <path class="cls-4" d="M1907.2,774.01c9.73,0,17.17,7.44,17.17,17.17s-7.44,17.17-17.17,17.17-17.17-7.44-17.17-17.17,7.44-17.17,17.17-17.17ZM1896.33,1139.15v-271.28h21.75v271.28h-21.75Z"/>
        <path class="cls-4" d="M2175.64,1139.15v-162.54c0-56.66-39.49-93.86-86.99-93.86s-86.99,37.2-86.99,93.86v162.54h-21.75v-165.4c0-66.96,48.07-111.6,108.74-111.6s108.74,44.64,108.74,111.6v165.4h-21.75Z"/>
        <path class="cls-4" d="M2301.96,1226.64c20.6,8.02,45.78,13.74,68.68,13.74,73.26,0,117.33-33.2,117.33-128.2v-108.67c0-62.95-45.21-120.76-110.46-120.76-54.94,0-109.31,50.94-109.31,120.76s54.37,120.76,109.31,120.76c36.06,0,61.24-14.88,84.7-39.49v25.76c-16.6,13.73-42.92,34.34-84.7,34.34-73.83,0-132.2-59.52-132.2-141.36s58.38-141.36,132.2-141.36,132.2,59.52,132.2,141.36v123.55c0,84.7-57.23,133.92-136.21,133.92-26.9,0-53.22-4.58-78.41-13.73l6.87-20.61Z"/>
      </g>
      <path class="cls-4" d="M2724.67,911.94c-56.69-16.06-105.65-29.93-105.65-81.27,0-42.88,23.6-61.17,78.91-61.17h142v-40.2h-151.16c-69.94,0-113.38,37.96-113.38,99.08,0,86.8,71.52,106.6,134.62,124.08,56.15,15.55,109.18,30.24,109.18,88.83,0,43.14-33.31,66.89-93.79,66.89h-150.01v40.2h153.44c85.15,0,133.99-40.29,133.99-110.53,0-86.77-73.4-107.56-138.16-125.91Z"/>
      <path class="cls-4" d="M3244.51,722.43c-27.16,0-34.3,8.18-47.77,54.69l-94.74,320.9-94.73-320.85c-13.49-46.55-20.63-54.73-47.78-54.73-31.87,0-36.27,30.78-38.9,49.19l-51.21,376.75h42.66l50.85-375.85c.11.39.22.8.34,1.22l96.14,328.47c10.85,37.7,15.96,50.74,42.63,50.74s31.78-13.03,42.62-50.71l96.21-328.71c.1-.35.19-.69.28-1.01l50.85,375.85h42.66l-51.22-376.81c-2.63-18.37-7.02-49.13-38.89-49.13Z"/>
      <polygon class="cls-4" points="3957.58 729.3 3957.58 768.36 4071.48 768.36 4071.48 1148.37 4113.95 1148.37 4113.95 768.36 4227.85 768.36 4227.85 729.3 3957.58 729.3"/>
      <path class="cls-4" d="M4185.36,1144.56c-21.2,0-38.45-17.59-38.45-39.2s17.25-39.2,38.45-39.2,38.67,17.58,38.67,39.2-17.35,39.2-38.67,39.2ZM4185.36,1071.81c-8.79,0-16.95,3.54-22.98,9.96-5.92,6.32-9.19,14.69-9.19,23.58s3.27,17.27,9.19,23.58c6.03,6.43,14.19,9.97,22.98,9.97,17.86,0,32.38-15.05,32.38-33.55s-14.53-33.55-32.38-33.55ZM4205.93,1128.97h-7.66l-12.83-21.11h-9.55v21.11h-5.65v-46.37h17.67c9.96,0,14.81,4.11,14.81,12.58s-5.37,11.43-10.5,12.46l13.72,21.33ZM4175.89,1102.43h7.88c7.54,0,12.87-.53,12.87-7.36,0-4.74-3.28-7.04-10.01-7.04h-10.75v14.39Z"/>
      <path class="cls-4" d="M3500.92,722.43c-90.76,0-147.15,56.39-147.15,147.15v278.79h42.48v-286.23c0-61.38,40.1-99.51,104.67-99.51s104.67,38.13,104.67,99.51v51.44h-186.87v39.05h186.87v195.73h42.49v-278.79c0-90.77-56.38-147.15-147.15-147.15Z"/>
      <path class="cls-4" d="M3899.17,934.65c33.15-19.39,49.94-52.59,49.94-98.83,0-66.76-54.16-113.39-131.7-113.39s-128.26,53.04-128.26,135.14v290.8h42.48v-291.95c0-58.73,32.07-93.79,85.78-93.79s88.07,31.04,88.07,75.48c0,51.61-34.6,81.2-94.94,81.2h-54.86v39.05h72.03c55.31,0,85.78,23.96,85.78,67.47v122.54h43.63v-119.11c0-45.51-20.99-79.52-57.95-94.61Z"/>
      <g>
        <path class="cls-4" d="M820.65,1445.62v-164.33h23.16l52.67,83.14c12.19,19.26,21.7,36.57,29.5,53.4l.49-.24c-1.95-21.94-2.44-41.94-2.44-67.54v-68.76h19.99v164.33h-21.46l-52.18-83.39c-11.46-18.29-22.43-37.06-30.72-54.86l-.73.24c1.22,20.72,1.71,40.47,1.71,67.78v70.22h-19.99Z"/>
        <path class="cls-4" d="M1087.15,1385.64c0,43.64-30.23,62.66-58.76,62.66-31.94,0-56.57-23.41-56.57-60.71,0-39.5,25.84-62.66,58.52-62.66s56.81,24.63,56.81,60.71ZM993.52,1386.86c0,25.84,14.87,45.35,35.84,45.35s35.84-19.26,35.84-45.84c0-19.99-10-45.35-35.35-45.35s-36.33,23.41-36.33,45.84Z"/>
        <path class="cls-4" d="M1114.21,1364.43c0-13.9-.24-25.84-.98-36.82h18.77l.73,23.16h.98c5.36-15.85,18.29-25.85,32.67-25.85,2.44,0,4.15.24,6.1.73v20.24c-2.19-.49-4.39-.73-7.31-.73-15.12,0-25.84,11.46-28.77,27.55-.49,2.93-.98,6.34-.98,10v62.91h-21.21v-81.19Z"/>
        <path class="cls-4" d="M1293.66,1327.61c-.49,8.53-.98,18.04-.98,32.43v68.51c0,27.06-5.36,43.64-16.82,53.88-11.46,10.73-28.04,14.14-42.91,14.14s-29.75-3.41-39.26-9.75l5.36-16.34c7.8,4.88,19.99,9.26,34.62,9.26,21.94,0,38.04-11.46,38.04-41.21v-13.17h-.49c-6.58,10.97-19.26,19.75-37.55,19.75-29.26,0-50.23-24.87-50.23-57.54,0-39.99,26.09-62.66,53.15-62.66,20.48,0,31.7,10.73,36.82,20.48h.49l.98-17.8h18.77ZM1271.48,1374.18c0-3.66-.24-6.83-1.22-9.75-3.9-12.43-14.39-22.67-29.99-22.67-20.48,0-35.11,17.31-35.11,44.62,0,23.16,11.7,42.42,34.87,42.42,13.17,0,25.11-8.29,29.75-21.94,1.22-3.66,1.71-7.8,1.71-11.46v-21.21Z"/>
        <path class="cls-4" d="M1340.23,1390.51c.49,29.01,19.02,40.96,40.47,40.96,15.36,0,24.63-2.68,32.67-6.1l3.66,15.36c-7.56,3.41-20.48,7.31-39.25,7.31-36.33,0-58.03-23.89-58.03-59.49s20.97-63.64,55.35-63.64c38.52,0,48.76,33.89,48.76,55.59,0,4.39-.49,7.8-.73,10h-82.9ZM1403.14,1375.15c.24-13.65-5.61-34.87-29.75-34.87-21.7,0-31.21,19.99-32.92,34.87h62.66Z"/>
      </g>
    </g>
    <g>
      <path class="cls-4" d="M2763.03,272.88c29.74,8.79,53.91,24.18,72.57,46.17,18.63,21.99,27.93,48.47,27.93,79.47,0,45.22-15.17,80.62-45.54,106.18-30.37,25.55-67.54,38.33-111.52,38.33-34.34,0-65.02-7.86-92.05-23.57-27-15.7-46.59-38.84-58.72-69.42l74.14-42.71c10.86,33.92,36.42,50.89,76.63,50.89,22.21,0,39.48-5.34,51.83-16.01,12.37-10.69,18.54-25.25,18.54-43.68s-6.17-32.46-18.54-43.36c-12.34-10.88-29.62-16.33-51.83-16.33h-18.84l-33.29-50.27,86.69-113.08h-172.14v-81.06h276.43v71.64l-82.29,106.8Z"/>
      <path class="cls-6" d="M3074.27,220.17c-2.1,5.66-9.78,3.61-8.76-2.35l23.3-137.67c3.89-22.86,42.23-12.59,34.13,9.14l-48.67,130.88Z"/>
      <path class="cls-3" d="M3080.12,258.75c-2.35,3.5-7.35.61-5.51-3.19l55.59-113.72c6.83-14.03,29.35-1.05,20.62,11.92l-70.7,104.99Z"/>
      <path class="cls-7" d="M3069.73,295.39c-4.45,4.03-10.44-1.97-6.44-6.41l178.54-197.12c15.6-17.18,42.17,9.41,24.98,24.98l-197.08,178.55Z"/>
      <path class="cls-6" d="M3132.1,268.92c-5.48,2.51-9.45-4.36-4.55-7.86l113.83-80.89c18.9-13.42,38.77,20.95,17.67,30.61l-126.95,58.14Z"/>
      <path class="cls-3" d="M3108.95,300.33c-4.12.81-5.63-4.79-1.63-6.16l119.71-41.1c14.77-5.09,21.49,20,6.14,23l-124.22,24.26Z"/>
      <path class="cls-1" d="M3274.4,246.03c5.03,5.03,5.03,13.2,0,18.22-5.03,5.04-13.21,5.04-18.24,0-5.03-5.03-5.03-13.2,0-18.22,5.03-5.04,13.21-5.04,18.24,0"/>
      <path class="cls-7" d="M3075.69,318.88c-5.99-.3-5.99-8.79,0-9.08l265.62-13.14c23.18-1.14,23.18,36.48,0,35.34l-265.62-13.12Z"/>
      <path class="cls-6" d="M3138.51,344.27c-5.66-2.11-3.61-9.78,2.35-8.77l137.7,23.3c22.85,3.88,12.58,42.21-9.15,34.13l-130.9-48.65Z"/>
      <path class="cls-7" d="M3048.9,283c-.3,5.99-8.79,5.99-9.09,0l-13.12-265.62c-1.15-23.18,36.48-23.18,35.33,0l-13.12,265.62Z"/>
      <path class="cls-3" d="M3099.95,350.11c-3.52-2.36-.6-7.38,3.19-5.52l113.68,55.58c14.06,6.86,1.09,29.36-11.89,20.63l-104.99-70.69Z"/>
      <path class="cls-1" d="M3255.32,428.7c0,7.12-5.75,12.9-12.88,12.9s-12.91-5.78-12.91-12.9,5.78-12.9,12.91-12.9,12.88,5.78,12.88,12.9"/>
      <path class="cls-2" d="M3187.99,452.31c-10.53-7.09-21.04-14.18-31.57-21.27-8.52-5.73-19.17-5.54-27.49.46-23.78,17.2-53,27.32-84.57,27.32-79.82,0-144.5-64.7-144.5-144.49,0-58.32,34.52-108.55,84.28-131.38,9.08-4.18,14.44-13,13.96-23.02l-1.9-38.36c-.39-7.93-4.18-14.57-10.83-18.9-6.62-4.35-14.21-5.19-21.64-2.39-86.5,32.6-148.05,116.14-148.05,214.07,0,126.29,102.39,228.69,228.69,228.69,55.26,0,105.98-19.62,145.5-52.27,6.04-4.98,9.08-11.87,8.69-19.7-.36-7.83-4.06-14.37-10.56-18.75"/>
    </g>
    <text class="cls-5" transform="translate(3358.08 537.27)"><tspan x="0" y="0">år med</tspan></text>
  </g>
</svg>